#Comment line ignore any data following # character 
#Hierarchical Translation and Rotation (.htr) file 
[Header]	
#Header keywords are followed by a single value 
FileType HTR		#Single word string
DataType HTRS		#Translation followed by rotation and scale data
FileVersion 1		#integer
NumSegments 84		#integer
NumFrames 2		#integer
DataFrameRate 30		#integer, data frame rate in this file
EulerRotationOrder ZYX
CalibrationUnits mm
RotationUnits Degrees
GlobalAxisofGravity Y
BoneLengthAxis Y
ScaleFactor 1.00
[SegmentNames&Hierarchy]
#CHILD	PARENT
MASTER GLOBAL
root MASTER
chest root
L_mid_tent01 root
R_mid_tent01 root
spine01 root
Bip01_Neck chest
L_humerus chest
R_humerus chest
weapon_bone chest
Bip01_Head Bip01_Neck
eye_left_bone Bip01_Head
eye_right_bone Bip01_Head
L_forearm L_humerus
L_front_hand L_forearm
L_weapon_bone L_forearm
L_front_hand01_01 L_front_hand
L_front_hand02_01 L_front_hand
L_front_hand03_01 L_front_hand
L_front_hand01_02 L_front_hand01_01
L_front_hand02_02 L_front_hand02_01
L_front_hand03_02 L_front_hand03_01
R_forearm R_humerus
R_front_hand R_forearm
R_weapon_bone R_forearm
R_front_hand01_01 R_front_hand
R_front_hand02_01 R_front_hand
R_front_hand03_01 R_front_hand
R_front_hand01_02 R_front_hand01_01
R_front_hand02_02 R_front_hand02_01
R_front_hand03_02 R_front_hand03_01
null_rope01_connect L_mid_tent01
Rope1_Seg01 null_rope01_connect
Rope1_Seg02 Rope1_Seg01
Rope1_Seg03 Rope1_Seg02
Rope1_Seg04 Rope1_Seg03
Rope1_Seg05 Rope1_Seg04
Rope1_Seg06 Rope1_Seg05
Rope1_Seg07 Rope1_Seg06
Rope1_Seg09 Rope1_Seg07
L_mid_hand01 Rope1_Seg09
L_mid_hand02 Rope1_Seg09
L_mid_hand03 Rope1_Seg09
null_rope02_connect R_mid_tent01
Rope2_Seg01 null_rope02_connect
Rope2_Seg02 Rope2_Seg01
Rope2_Seg03 Rope2_Seg02
Rope2_Seg04 Rope2_Seg03
Rope2_Seg05 Rope2_Seg04
Rope2_Seg06 Rope2_Seg05
Rope2_Seg07 Rope2_Seg06
Rope2_Seg09 Rope2_Seg07
R_mid_hand01 Rope2_Seg09
R_mid_hand02 Rope2_Seg09
R_mid_hand03 Rope2_Seg09
spine02 spine01
spine03 spine02
pelvis spine03
null_rope03_connect pelvis
null_rope04_connect pelvis
Rope3_Seg01 null_rope03_connect
Rope3_Seg02 Rope3_Seg01
Rope3_Seg03 Rope3_Seg02
Rope3_Seg04 Rope3_Seg03
Rope3_Seg05 Rope3_Seg04
Rope3_Seg06 Rope3_Seg05
Rope3_Seg07 Rope3_Seg06
Rope3_Seg08 Rope3_Seg07
Rope3_Seg09 Rope3_Seg08
R_rear_hand01 Rope3_Seg09
R_rear_hand02 Rope3_Seg09
R_rear_hand03 Rope3_Seg09
Rope4_Seg01 null_rope04_connect
Rope4_Seg02 Rope4_Seg01
Rope4_Seg03 Rope4_Seg02
Rope4_Seg04 Rope4_Seg03
Rope4_Seg05 Rope4_Seg04
Rope4_Seg06 Rope4_Seg05
Rope4_Seg07 Rope4_Seg06
Rope4_Seg08 Rope4_Seg07
Rope4_Seg09 Rope4_Seg08
L_rear_hand01 Rope4_Seg09
L_rear_hand02 Rope4_Seg09
L_rear_hand03 Rope4_Seg09
[BasePosition]
#SegmentName Tx, Ty, Tz, Rx, Ry, Rz, BoneLength
MASTER 0.000000 0.000000 0.000000 -90.000000 0.000000 0.000000 10.000000 
root 0.000000 0.000000 0.000000 0.000000 0.000000 0.000000 10.000000 
chest 0.000000 0.000000 0.000000 0.000000 0.000000 0.000000 10.000000 
L_mid_tent01 0.000000 0.000000 0.000000 0.000000 0.000000 0.000000 10.000000 
R_mid_tent01 0.000000 0.000000 0.000000 0.000000 0.000000 0.000000 10.000000 
spine01 0.000000 0.000000 0.000000 0.000000 0.000000 0.000000 10.000000 
Bip01_Neck 0.000000 0.000000 0.000000 0.000000 0.000000 0.000000 10.000000 
L_humerus 0.000000 0.000000 0.000000 0.000000 0.000000 0.000000 10.000000 
R_humerus 0.000000 0.000000 0.000000 0.000000 0.000000 0.000000 10.000000 
weapon_bone 0.000000 0.000000 0.000000 0.000000 0.000000 0.000000 10.000000 
Bip01_Head 0.000000 0.000000 0.000000 0.000000 0.000000 0.000000 10.000000 
eye_left_bone 0.000000 0.000000 0.000000 0.000000 0.000000 0.000000 10.000000 
eye_right_bone 0.000000 0.000000 0.000000 0.000000 0.000000 0.000000 10.000000 
L_forearm 0.000000 0.000000 0.000000 0.000000 0.000000 0.000000 10.000000 
L_front_hand 0.000000 0.000000 0.000000 0.000000 0.000000 0.000000 10.000000 
L_weapon_bone 0.000000 0.000000 0.000000 0.000000 0.000000 0.000000 10.000000 
L_front_hand01_01 0.000000 0.000000 0.000000 0.000000 0.000000 0.000000 10.000000 
L_front_hand02_01 0.000000 0.000000 0.000000 0.000000 0.000000 0.000000 10.000000 
L_front_hand03_01 0.000000 0.000000 0.000000 0.000000 0.000000 0.000000 10.000000 
L_front_hand01_02 0.000000 0.000000 0.000000 0.000000 0.000000 0.000000 10.000000 
L_front_hand02_02 0.000000 0.000000 0.000000 0.000000 0.000000 0.000000 10.000000 
L_front_hand03_02 0.000000 0.000000 0.000000 0.000000 0.000000 0.000000 10.000000 
R_forearm 0.000000 0.000000 0.000000 0.000000 0.000000 0.000000 10.000000 
R_front_hand 0.000000 0.000000 0.000000 0.000000 0.000000 0.000000 10.000000 
R_weapon_bone 0.000000 0.000000 0.000000 0.000000 0.000000 0.000000 10.000000 
R_front_hand01_01 0.000000 0.000000 0.000000 0.000000 0.000000 0.000000 10.000000 
R_front_hand02_01 0.000000 0.000000 0.000000 0.000000 0.000000 0.000000 10.000000 
R_front_hand03_01 0.000000 0.000000 0.000000 0.000000 0.000000 0.000000 10.000000 
R_front_hand01_02 0.000000 0.000000 0.000000 0.000000 0.000000 0.000000 10.000000 
R_front_hand02_02 0.000000 0.000000 0.000000 0.000000 0.000000 0.000000 10.000000 
R_front_hand03_02 0.000000 0.000000 0.000000 0.000000 0.000000 0.000000 10.000000 
null_rope01_connect 0.000000 0.000000 0.000000 0.000000 0.000000 0.000000 10.000000 
Rope1_Seg01 0.000000 0.000000 0.000000 0.000000 0.000000 0.000000 10.000000 
Rope1_Seg02 0.000000 0.000000 0.000000 0.000000 0.000000 0.000000 10.000000 
Rope1_Seg03 0.000000 0.000000 0.000000 0.000000 0.000000 0.000000 10.000000 
Rope1_Seg04 0.000000 0.000000 0.000000 0.000000 0.000000 0.000000 10.000000 
Rope1_Seg05 0.000000 0.000000 0.000000 0.000000 0.000000 0.000000 10.000000 
Rope1_Seg06 0.000000 0.000000 0.000000 0.000000 0.000000 0.000000 10.000000 
Rope1_Seg07 0.000000 0.000000 0.000000 0.000000 0.000000 0.000000 10.000000 
Rope1_Seg09 0.000000 0.000000 0.000000 0.000000 0.000000 0.000000 10.000000 
L_mid_hand01 0.000000 0.000000 0.000000 0.000000 0.000000 0.000000 10.000000 
L_mid_hand02 0.000000 0.000000 0.000000 0.000000 0.000000 0.000000 10.000000 
L_mid_hand03 0.000000 0.000000 0.000000 0.000000 0.000000 0.000000 10.000000 
null_rope02_connect 0.000000 0.000000 0.000000 0.000000 0.000000 0.000000 10.000000 
Rope2_Seg01 0.000000 0.000000 0.000000 0.000000 0.000000 0.000000 10.000000 
Rope2_Seg02 0.000000 0.000000 0.000000 0.000000 0.000000 0.000000 10.000000 
Rope2_Seg03 0.000000 0.000000 0.000000 0.000000 0.000000 0.000000 10.000000 
Rope2_Seg04 0.000000 0.000000 0.000000 0.000000 0.000000 0.000000 10.000000 
Rope2_Seg05 0.000000 0.000000 0.000000 0.000000 0.000000 0.000000 10.000000 
Rope2_Seg06 0.000000 0.000000 0.000000 0.000000 0.000000 0.000000 10.000000 
Rope2_Seg07 0.000000 0.000000 0.000000 0.000000 0.000000 0.000000 10.000000 
Rope2_Seg09 0.000000 0.000000 0.000000 0.000000 0.000000 0.000000 10.000000 
R_mid_hand01 0.000000 0.000000 0.000000 0.000000 0.000000 0.000000 10.000000 
R_mid_hand02 0.000000 0.000000 0.000000 0.000000 0.000000 0.000000 10.000000 
R_mid_hand03 0.000000 0.000000 0.000000 0.000000 0.000000 0.000000 10.000000 
spine02 0.000000 0.000000 0.000000 0.000000 0.000000 0.000000 10.000000 
spine03 0.000000 0.000000 0.000000 0.000000 0.000000 0.000000 10.000000 
pelvis 0.000000 0.000000 0.000000 0.000000 0.000000 0.000000 10.000000 
null_rope03_connect 0.000000 0.000000 0.000000 0.000000 0.000000 0.000000 10.000000 
null_rope04_connect 0.000000 0.000000 0.000000 0.000000 0.000000 0.000000 10.000000 
Rope3_Seg01 0.000000 0.000000 0.000000 0.000000 0.000000 0.000000 10.000000 
Rope3_Seg02 0.000000 0.000000 0.000000 0.000000 0.000000 0.000000 10.000000 
Rope3_Seg03 0.000000 0.000000 0.000000 0.000000 0.000000 0.000000 10.000000 
Rope3_Seg04 0.000000 0.000000 0.000000 0.000000 0.000000 0.000000 10.000000 
Rope3_Seg05 0.000000 0.000000 0.000000 0.000000 0.000000 0.000000 10.000000 
Rope3_Seg06 0.000000 0.000000 0.000000 0.000000 0.000000 0.000000 10.000000 
Rope3_Seg07 0.000000 0.000000 0.000000 0.000000 0.000000 0.000000 10.000000 
Rope3_Seg08 0.000000 0.000000 0.000000 0.000000 0.000000 0.000000 10.000000 
Rope3_Seg09 0.000000 0.000000 0.000000 0.000000 0.000000 0.000000 10.000000 
R_rear_hand01 0.000000 0.000000 0.000000 0.000000 0.000000 0.000000 10.000000 
R_rear_hand02 0.000000 0.000000 0.000000 0.000000 0.000000 0.000000 10.000000 
R_rear_hand03 0.000000 0.000000 0.000000 0.000000 0.000000 0.000000 10.000000 
Rope4_Seg01 0.000000 0.000000 0.000000 0.000000 0.000000 0.000000 10.000000 
Rope4_Seg02 0.000000 0.000000 0.000000 0.000000 0.000000 0.000000 10.000000 
Rope4_Seg03 0.000000 0.000000 0.000000 0.000000 0.000000 0.000000 10.000000 
Rope4_Seg04 0.000000 0.000000 0.000000 0.000000 0.000000 0.000000 10.000000 
Rope4_Seg05 0.000000 0.000000 0.000000 0.000000 0.000000 0.000000 10.000000 
Rope4_Seg06 0.000000 0.000000 0.000000 0.000000 0.000000 0.000000 10.000000 
Rope4_Seg07 0.000000 0.000000 0.000000 0.000000 0.000000 0.000000 10.000000 
Rope4_Seg08 0.000000 0.000000 0.000000 0.000000 0.000000 0.000000 10.000000 
Rope4_Seg09 0.000000 0.000000 0.000000 0.000000 0.000000 0.000000 10.000000 
L_rear_hand01 0.000000 0.000000 0.000000 0.000000 0.000000 0.000000 10.000000 
L_rear_hand02 0.000000 0.000000 0.000000 0.000000 0.000000 0.000000 10.000000 
L_rear_hand03 0.000000 0.000000 0.000000 0.000000 0.000000 0.000000 10.000000 
#Beginning of Data. Separated by tabs
#Fr	Tx	Ty	Tz	Rx	Ry	Rz	SF
[MASTER]
8 0.000329 -3046.852783 -355.753448 0.001660 0.001660 0.001660 3067.551514
9 0.000371 -3444.077637 -389.759705 0.001660 0.001660 0.001660 3466.061768
[root]
8 -35.184200 -44.117748 1495.768677 -80.210838 -18.933554 -103.833839 1496.832764
9 -37.149166 -49.040836 1500.759399 -82.723892 -22.138021 -101.888420 1502.019897
[chest]
8 -84.512650 -34.090519 0.000000 25.067751 4.548775 146.797089 91.129311
9 -84.512650 -34.090519 0.000000 23.113987 0.281226 147.067337 91.129311
[L_mid_tent01]
8 27.299135 22.179106 -249.918716 1.792589 21.006760 79.241516 252.381699
9 27.299139 22.179106 -249.918716 1.900788 5.705032 78.848999 252.381699
[R_mid_tent01]
8 23.228794 24.509907 226.238495 164.113953 2.910593 75.522720 228.744751
9 23.228794 24.509907 226.238495 165.111572 2.584348 73.196114 228.744751
[spine01]
8 -0.361383 -0.195265 0.000000 0.002059 0.001128 32.565418 0.410763
9 -0.361383 -0.195265 0.000000 0.002056 0.001132 32.328472 0.410763
[Bip01_Neck]
8 165.484543 71.581718 0.000119 176.643677 -1.657967 43.431911 180.302734
9 165.484543 71.581718 0.000119 176.643677 -1.657967 43.431911 180.302734
[L_humerus]
8 -13.983130 -135.272980 -120.471481 172.304932 44.907455 -64.351089 181.680161
9 -13.983130 -135.272980 -120.471481 168.102081 35.308231 -64.508850 181.680161
[R_humerus]
8 -13.983309 -135.273102 125.287651 177.551331 -38.911419 -80.024719 184.909012
9 -13.983309 -135.273102 125.287651 -179.977722 -28.270746 -82.493317 184.909012
[weapon_bone]
8 235.964890 -300.705902 0.000000 0.000000 -89.951546 -128.212341 382.234833
9 235.964890 -300.705902 0.000000 0.000000 -89.951546 -128.212341 382.234833
[Bip01_Head]
8 213.658905 185.118027 19.491652 31.597792 1.718716 -43.900791 283.370300
9 213.619675 185.227417 18.079067 31.777691 0.950312 -43.900913 283.318573
[eye_left_bone]
8 -24.626970 125.451866 -64.772606 0.000000 -90.000000 -99.840431 143.318359
9 -24.626970 125.451866 -64.772606 0.000000 -90.000000 -99.840431 143.318359
[eye_right_bone]
8 -24.626970 125.451866 64.327362 0.000000 -89.965736 80.156380 143.117676
9 -24.626970 125.451866 64.327362 0.000000 -89.965736 80.156380 143.117676
[L_forearm]
8 322.776093 0.000000 -0.000119 0.000244 -0.002334 -101.940727 322.776093
9 322.776093 0.000000 -0.000119 0.000205 -0.002338 -100.004669 322.776093
[L_front_hand]
8 241.149185 -0.042021 -3.300071 -75.326576 -1.834872 -27.425621 241.171753
9 241.149185 -0.042021 -3.300071 -9.135986 -1.835470 -27.424623 241.171753
[L_weapon_bone]
8 156.183838 0.000000 0.000000 0.000014 0.000007 0.000001 156.183838
9 156.183838 0.000000 0.000000 0.000014 0.000007 0.000001 156.183838
[L_front_hand01_01]
8 86.095154 20.947098 -0.655860 -0.366594 -0.477154 75.385574 88.609184
9 86.095154 20.947098 -0.655860 -0.366594 -0.477154 75.385574 88.609184
[L_front_hand02_01]
8 86.935165 -11.437475 24.513514 154.399796 -59.883835 -61.369587 91.046425
9 86.935165 -11.437475 24.513514 154.399796 -59.883835 -61.369587 91.046425
[L_front_hand03_01]
8 86.637497 -14.123976 -20.424902 -153.913849 58.118130 -62.702866 90.126129
9 86.637497 -14.123976 -20.424902 -153.913849 58.118122 -62.702866 90.126129
[L_front_hand01_02]
8 71.020905 -0.000179 0.000030 0.001182 0.002028 -29.548752 71.020905
9 71.020905 -0.000179 0.000030 0.001370 0.001906 -18.571438 71.020905
[L_front_hand02_02]
8 71.020927 -0.000119 0.000060 0.001182 0.002028 -29.548752 71.020927
9 71.020927 -0.000119 0.000060 0.001370 0.001906 -18.571438 71.020927
[L_front_hand03_02]
8 71.020905 -0.000060 0.000060 0.001182 0.002028 -29.548752 71.020905
9 71.020905 -0.000060 0.000060 0.001370 0.001906 -18.571438 71.020905
[R_forearm]
8 322.776428 -0.000060 0.000030 0.211253 0.033310 -99.804176 322.776428
9 322.776428 -0.000060 0.000030 0.212034 0.026407 -97.952187 322.776428
[R_front_hand]
8 238.847015 -0.006795 2.210259 -120.673363 -10.643579 -26.315453 238.857239
9 238.847015 -0.006795 2.210259 171.033615 -10.643655 -26.314905 238.857239
[R_weapon_bone]
8 155.664093 0.002503 -0.000030 0.003487 0.001180 -90.988930 155.664078
9 155.664093 0.002503 -0.000030 0.003487 0.001180 -90.988930 155.664078
[R_front_hand01_01]
8 87.624611 14.231146 22.918642 -154.633514 -59.950634 61.746063 91.683487
9 87.624611 14.231146 22.918642 -154.633499 -59.950619 61.746044 91.683487
[R_front_hand02_01]
8 89.356956 14.367283 -19.491137 154.602661 58.302849 63.744389 92.579636
9 89.356956 14.367283 -19.491137 154.602661 58.302849 63.744389 92.579636
[R_front_hand03_01]
8 87.286232 -22.307278 -0.143439 0.162155 -0.423168 -75.767906 90.091743
9 87.286232 -22.307278 -0.143439 0.162155 -0.423168 -75.767921 90.091743
[R_front_hand01_02]
8 71.020905 0.000060 0.000119 0.002028 0.001182 29.547068 71.020905
9 71.020905 0.000060 0.000119 0.001906 0.001370 18.569794 71.020905
[R_front_hand02_02]
8 71.020844 -0.000030 -0.000119 0.002028 0.001182 29.547068 71.020836
9 71.020844 -0.000030 -0.000119 0.001906 0.001370 18.569794 71.020836
[R_front_hand03_02]
8 71.020905 0.000000 0.000030 0.002028 0.001182 29.547068 71.020905
9 71.020905 0.000000 0.000030 0.001906 0.001370 18.569794 71.020905
[null_rope01_connect]
8 328.732483 0.000000 -0.000238 -110.288376 -66.024506 138.826920 328.732483
9 328.732483 0.000000 -0.000238 -77.622841 -75.818596 111.134361 328.732483
[Rope1_Seg01]
8 -0.000010 -0.000029 0.000153 5.048976 58.998333 11.214221 0.000156
9 -0.000011 -0.000027 0.000153 27.313658 72.650116 37.060894 0.000155
[Rope1_Seg02]
8 139.999863 -0.000179 0.000000 2.049455 1.726912 23.557390 139.999863
9 139.999863 -0.000179 0.000000 -0.909525 -6.189180 19.998365 139.999863
[Rope1_Seg03]
8 139.999924 0.000060 -0.000060 11.155136 4.452964 28.915609 139.999924
9 139.999924 0.000060 -0.000060 2.725660 -4.792483 19.592148 139.999924
[Rope1_Seg04]
8 139.999924 -0.000060 -0.000119 7.340180 2.372687 12.420863 139.999924
9 139.999924 -0.000060 -0.000119 2.411062 -3.339830 9.652723 139.999924
[Rope1_Seg05]
8 139.999832 0.000119 -0.000060 -4.774020 -6.549365 -1.500078 139.999832
9 139.999832 0.000119 -0.000060 -2.025742 -4.178365 1.169479 139.999832
[Rope1_Seg06]
8 139.999954 0.000119 -0.000060 -2.828770 -4.044882 -0.155838 139.999954
9 139.999954 0.000119 -0.000060 -1.161431 -3.156138 1.805050 139.999954
[Rope1_Seg07]
8 139.999985 0.000060 0.000000 -1.459513 -2.469636 0.542688 139.999985
9 139.999985 0.000060 0.000000 -0.607925 -2.303972 1.775001 139.999985
[Rope1_Seg09]
8 121.602913 0.000119 -0.000089 -89.793175 -1.359789 0.847147 121.602913
9 121.602913 0.000119 -0.000089 -89.793175 -1.359789 0.847147 121.602913
[L_mid_hand01]
8 103.859421 1.038730 8.195221 109.437721 -41.837845 -13.776228 104.187431
9 103.859421 1.038730 8.195221 109.056190 -40.604698 -13.201404 104.187431
[L_mid_hand02]
8 105.572853 -4.139662 -10.864139 -147.395187 32.186741 -39.191986 106.211075
9 105.572853 -4.139662 -10.864139 -146.713593 31.476528 -37.902313 106.211075
[L_mid_hand03]
8 104.641464 17.579376 -3.913581 -13.988547 12.638442 45.197113 106.179977
9 104.641464 17.579376 -3.913581 -14.267232 12.322316 43.898403 106.179977
[null_rope02_connect]
8 328.732849 0.000179 -0.000119 -25.316267 87.756157 120.660675 328.732849
9 328.732849 0.000179 -0.000119 -9.681268 85.269852 131.344406 328.732849
[Rope2_Seg01]
8 0.000095 0.000238 0.000000 -35.582142 25.783169 75.630081 0.000257
9 0.000095 0.000256 0.000000 -32.181850 32.044575 78.919235 0.000273
[Rope2_Seg02]
8 139.999741 -0.000060 -0.000119 0.948280 -1.871776 4.473815 139.999756
9 139.999741 -0.000060 -0.000119 1.228266 -5.440175 7.594185 139.999756
[Rope2_Seg03]
8 140.000107 0.000030 0.000000 1.301549 -1.620935 4.693649 140.000107
9 140.000107 0.000030 0.000000 2.057461 -4.960544 7.389084 140.000107
[Rope2_Seg04]
8 139.999802 0.000000 -0.000060 3.541445 -0.225214 8.766283 139.999802
9 139.999802 0.000000 -0.000060 6.783460 -4.009205 12.930000 139.999802
[Rope2_Seg05]
8 139.999985 -0.000060 0.000119 -0.312842 -2.193266 0.408332 139.999985
9 139.999985 -0.000060 0.000119 3.594244 -2.353364 5.730714 139.999985
[Rope2_Seg06]
8 139.999893 -0.000030 -0.000119 -6.489329 -6.462828 -11.625506 139.999893
9 139.999893 -0.000030 -0.000119 -7.139899 -4.833060 -6.276795 139.999893
[Rope2_Seg07]
8 139.999893 0.000060 -0.000060 -6.242950 -4.911764 -11.789560 139.999893
9 139.999893 0.000060 -0.000060 -16.849812 -6.477165 -19.837801 139.999893
[Rope2_Seg09]
8 121.338966 0.000089 -0.000060 33.793236 -1.359788 -0.847141 121.338966
9 121.338966 0.000089 -0.000060 33.793236 -1.359788 -0.847141 121.338966
[R_mid_hand01]
8 104.680779 11.144459 -10.335981 -30.935734 37.970642 48.479172 105.778534
9 104.680779 11.144459 -10.335981 -33.085686 36.191681 44.913227 105.778534
[R_mid_hand02]
8 104.070427 2.443552 8.231699 65.980988 -52.455704 19.994473 104.424065
9 104.070427 2.443552 8.231699 67.611252 -49.370300 17.897308 104.424065
[R_mid_hand03]
8 106.028137 -11.221827 -5.996406 -172.374313 13.894678 -58.153652 106.788818
9 106.028137 -11.221827 -5.996406 -171.571182 13.427422 -54.737041 106.788818
[spine02]
8 129.756927 0.001550 0.000119 0.521416 -4.026071 -15.264290 129.756927
9 129.756927 0.001550 0.000119 0.529313 -4.025022 -15.349448 129.756927
[spine03]
8 78.613869 0.081558 -4.899020 1.991845 3.784415 17.936899 78.766411
9 78.613838 0.081569 -4.899022 1.998393 3.782770 17.987198 78.766380
[pelvis]
8 169.435242 0.051022 0.000000 -0.069991 -0.177870 17.048092 169.435257
9 169.435242 0.051022 0.000000 -0.070161 -0.177803 17.158123 169.435257
[null_rope03_connect]
8 -1.257226 -2.466202 137.391083 -44.601452 -75.095390 102.500404 137.418976
9 -1.257226 -2.466202 137.391083 -47.990765 -77.950409 108.814774 137.418976
[null_rope04_connect]
8 -1.259640 -2.480268 -137.844437 -44.601452 -75.095390 102.500404 137.872513
9 -1.259640 -2.480268 -137.844437 -47.990765 -77.950409 108.814774 137.872513
[Rope3_Seg01]
8 -0.000019 0.000124 -0.000114 -2.827267 4.295151 41.498104 0.000170
9 -0.000019 0.000147 -0.000109 -5.992680 5.892827 40.045006 0.000184
[Rope3_Seg02]
8 139.999924 -0.000119 0.000060 13.270536 -7.372587 9.159022 139.999924
9 139.999924 -0.000119 0.000060 13.026604 -5.793059 14.168914 139.999924
[Rope3_Seg03]
8 139.999924 -0.000119 0.000119 8.827919 -3.985721 11.258353 139.999924
9 139.999924 -0.000119 0.000119 7.862396 -0.877538 20.778360 139.999924
[Rope3_Seg04]
8 139.999924 0.000119 0.000000 5.999646 -2.690567 11.716509 139.999924
9 139.999924 0.000119 0.000000 3.293139 1.242344 19.899097 139.999924
[Rope3_Seg05]
8 139.999924 -0.000238 0.000060 3.707491 -5.166494 2.276480 139.999924
9 139.999924 -0.000238 0.000060 1.945822 -9.774095 -5.702233 139.999924
[Rope3_Seg06]
8 139.999893 -0.000119 -0.000060 1.884661 -2.507733 0.084083 139.999893
9 139.999893 -0.000119 -0.000060 1.466765 -5.434339 -4.763442 139.999893
[Rope3_Seg07]
8 139.999771 0.000060 -0.000119 1.355543 -0.991231 0.726924 139.999771
9 139.999771 0.000060 -0.000119 1.122767 -1.934637 -0.774139 139.999771
[Rope3_Seg08]
8 139.999985 -0.000060 0.000000 1.038042 -0.576118 0.446519 139.999985
9 139.999985 -0.000060 0.000000 0.920919 -1.137416 -0.427902 139.999985
[Rope3_Seg09]
8 90.185997 -0.000179 -0.000060 89.793228 -1.359877 -0.847183 90.185997
9 90.185997 -0.000179 -0.000060 89.793228 -1.359877 -0.847183 90.185997
[R_rear_hand01]
8 103.366196 -6.073594 -10.757982 -168.239929 21.836601 -50.169044 104.101845
9 103.366196 -6.073594 -10.757982 -166.818848 21.039259 -46.280426 104.101845
[R_rear_hand02]
8 100.509819 12.039542 -7.992327 -26.552095 29.320543 47.442066 101.543350
9 100.509819 12.039542 -7.992327 -28.339693 27.613865 43.697414 101.543350
[R_rear_hand03]
8 101.539970 5.215704 5.435467 81.061974 -50.389538 10.772509 101.819031
9 101.539970 5.215704 5.435467 81.685280 -46.725750 9.939899 101.819031
[Rope4_Seg01]
8 0.000010 0.000038 -0.000114 -127.800583 -37.899315 118.703156 0.000121
9 0.000010 0.000038 -0.000114 -128.490570 -30.386354 129.878372 0.000121
[Rope4_Seg02]
8 139.999985 0.000060 0.000119 6.367500 0.960063 9.104621 139.999985
9 139.999985 0.000060 0.000119 5.221179 9.182631 9.475076 139.999985
[Rope4_Seg03]
8 139.999924 0.000000 -0.000238 7.112599 5.776855 15.057557 139.999924
9 139.999924 0.000000 -0.000238 5.457108 20.701925 16.091494 139.999924
[Rope4_Seg04]
8 139.999985 0.000000 0.000119 4.806860 5.667863 16.125311 139.999985
9 139.999985 0.000000 0.000119 5.600021 31.002478 20.634251 139.999985
[Rope4_Seg05]
8 139.999802 -0.000060 -0.000119 0.949115 -17.071272 -9.633978 139.999802
9 139.999802 -0.000060 -0.000119 -0.546038 -30.348833 -2.704755 139.999802
[Rope4_Seg06]
8 139.999924 0.000000 0.000060 -0.159525 -5.080112 -2.952025 139.999924
9 139.999924 0.000000 0.000060 3.315538 -24.110195 -5.154731 139.999924
[Rope4_Seg07]
8 139.999802 0.000000 0.000000 0.190790 -2.054441 -0.892139 139.999802
9 139.999802 0.000000 0.000000 1.714958 -6.351049 -0.435300 139.999802
[Rope4_Seg08]
8 139.999924 0.000000 0.000119 -1.422532 -1.181847 -0.507981 139.999924
9 139.999924 0.000000 0.000119 -0.429977 -3.337660 -0.129299 139.999924
[Rope4_Seg09]
8 90.185791 0.000060 0.000060 -135.617828 2.228885 0.850567 90.185791
9 90.185791 0.000060 0.000060 -135.617828 2.228885 0.850567 90.185791
[L_rear_hand01]
8 101.696655 -8.392275 -7.654577 -31.429779 -23.932976 143.406311 102.329041
9 101.696655 -8.392275 -7.654577 -30.719042 -24.879360 141.681366 102.329041
[L_rear_hand02]
8 102.726799 -1.568258 5.773216 82.628304 39.414528 171.441589 102.900848
9 102.726799 -1.568258 5.773216 82.428490 41.230476 171.131027 102.900848
[L_rear_hand03]
8 104.552910 9.721220 -10.420293 -164.198181 -19.188400 -141.332703 105.519653
9 104.552910 9.721220 -10.420293 -164.822937 -19.676041 -139.457672 105.519653
